<svg height='100px' width='100px'  fill="#000000" xmlns:dc="http://purl.org/dc/elements/1.1/" xmlns:cc="http://creativecommons.org/ns#" xmlns:rdf="http://www.w3.org/1999/02/22-rdf-syntax-ns#" xmlns:svg="http://www.w3.org/2000/svg" xmlns="http://www.w3.org/2000/svg" xmlns:sodipodi="http://sodipodi.sourceforge.net/DTD/sodipodi-0.dtd" xmlns:inkscape="http://www.inkscape.org/namespaces/inkscape" viewBox="0 0 26.458333 26.458334" version="1.1" x="0px" y="0px"><g transform="translate(0,-270.54165)"><path style="color:#000000;font-style:normal;font-variant:normal;font-weight:normal;font-stretch:normal;font-size:medium;line-height:normal;font-family:sans-serif;font-variant-ligatures:normal;font-variant-position:normal;font-variant-caps:normal;font-variant-numeric:normal;font-variant-alternates:normal;font-feature-settings:normal;text-indent:0;text-align:start;text-decoration:none;text-decoration-line:none;text-decoration-style:solid;text-decoration-color:#000000;letter-spacing:normal;word-spacing:normal;text-transform:none;writing-mode:lr-tb;direction:ltr;text-orientation:mixed;dominant-baseline:auto;baseline-shift:baseline;text-anchor:start;white-space:normal;shape-padding:0;clip-rule:nonzero;display:inline;overflow:visible;visibility:visible;opacity:1;isolation:auto;mix-blend-mode:normal;color-interpolation:sRGB;color-interpolation-filters:linearRGB;solid-color:#000000;solid-opacity:1;vector-effect:none;fill:#000000;fill-opacity:1;fill-rule:nonzero;stroke:none;stroke-width:0.84931248;stroke-linecap:round;stroke-linejoin:round;stroke-miterlimit:4;stroke-dasharray:none;stroke-dashoffset:0;stroke-opacity:1;paint-order:fill markers stroke;color-rendering:auto;image-rendering:auto;shape-rendering:auto;text-rendering:auto;enable-background:accumulate" d="m 13.142074,276.23665 c -2.115196,0 -3.8374932,1.72436 -3.8374932,3.83956 a 0.42480499,0.42480499 0 1 0 0.8495612,0 c 0,-1.6562 1.331743,-2.99 2.987932,-2.99 1.656183,0 2.990514,1.3338 2.990514,2.99 0,1.6562 -1.334331,2.99052 -2.990514,2.99052 H 3.1597361 a 0.42480499,0.42480499 0 1 0 0,0.84956 h 9.9823379 c 2.115192,0 3.840077,-1.72488 3.840075,-3.84008 0,-2.1152 -1.724883,-3.83956 -3.840075,-3.83956 z m 7.472928,2.42363 c -1.714809,0 -3.115056,1.39869 -3.115056,3.1135 a 0.42480449,0.42480449 0 1 0 0.849561,0 c 0,-1.25581 1.00969,-2.26394 2.265495,-2.26394 1.255808,0 2.263429,1.00813 2.263429,2.26394 0,1.25581 -1.007621,2.2655 -2.263429,2.2655 h -2.885096 a 0.42480499,0.42480499 0 1 0 0,0.84956 h 2.885096 c 1.714812,0 3.11299,-1.40025 3.11299,-3.11506 0,-1.71481 -1.398178,-3.1135 -3.11299,-3.1135 z m -12.4514368,6.41614 a 0.42480499,0.42480499 0 1 0 0,0.84956 h 7.3008458 c 1.255803,0 2.265495,1.00969 2.265495,2.2655 0,1.25581 -1.009692,2.26394 -2.265495,2.26394 -1.255794,0 -2.263425,-1.00813 -2.263425,-2.26394 a 0.42480449,0.42480449 0 0 0 -0.849561,0 c 0,1.71481 1.398182,3.1135 3.112986,3.1135 1.71481,0 3.115572,-1.39869 3.115572,-3.1135 0,-1.71481 -1.400762,-3.11506 -3.115572,-3.11506 z"></path></g></svg>